{"title":"Johnny Cash - Live From Austin Texas (01-03-1987)","uid":9130390,"size":838246400,"categoryP":"video","categoryS":"music_videos","magnet":"?xt=urn:btih:01cba5f3a7be9a0f270050baaba977f31f4f213a&amp;dn=Johnny+Cash+-+Live+From+Austin+Texas+%2801-03-1987%29&amp;tr=udp%3A%2F%2Ftracker.openbittorrent.com%3A80&amp;tr=udp%3A%2F%2Fopen.demonii.com%3A1337&amp;tr=udp%3A%2F%2Ftracker.coppersurfer.tk%3A6969&amp;tr=udp%3A%2F%2Fexodus.desync.com%3A6969","seeders":1,"leechers":0,"uploader":"user101966","files":1,"time":1383304107,"description":"Johnny Cash: Live From Austin Texas (January 03, 1987)\n\nTracks included in this performance:\n 1. Ring of Fire\n 2. Folsom Prison Blues\n 3. Sunday Morning Coming down\n 4. I Walk The Line\n 5. The Wall\n 6. Long Black Veil\n 7. Big River\n 8. I'll Go Somewhere and Sing My Songs Again\n 9. Let Him Roll\n10. Ballad of Barbara\n11. Sam Stone\n12. Ghost Riders in the Sky\n13. Where Did We Go Right with June Carter Cash\n14. I Walk the Line\n\n============================= Video Info ===============================\n \nGeneral\nComplete name                            : Johnny Cash - Live From Austin Texas (01-03-1987).avi\nFormat                                   : AVI\nFormat/Info                              : Audio Video Interleave\nFile size                                : 799 MiB\nDuration                                 : 49mn 57s\nOverall bit rate mode                    : Variable\nOverall bit rate                         : 2 237 Kbps\nWriting application                      : VirtualDubMod 1.5.4.1 (build 2178/release)\nWriting library                          : VirtualDubMod build 2178/release\n\nVideo\nID                                       : 0\nFormat                                   : MPEG-4 Visual\nFormat profile                           : Advanced Simple@L5\nFormat settings, BVOP                    : 1\nFormat settings, QPel                    : No\nFormat settings, GMC                     : No warppoints\nFormat settings, Matrix                  : Custom\nCodec ID                                 : XVID\nCodec ID/Hint                            : XviD\nDuration                                 : 49mn 57s\nBit rate                                 : 2 046 Kbps\nWidth                                    : 656 pixels\nHeight                                   : 400 pixels\nDisplay aspect ratio                     : 1.640\nFrame rate                               : 29.970 fps\nColor space                              : YUV\nChroma subsampling                       : 4:2:0\nBit depth                                : 8 bits\nScan type                                : Progressive\nCompression mode                         : Lossy\nBits/(Pixel*Frame)                       : 0.260\nStream size                              : 731 MiB (91%)\nWriting library                          : XviD 64\n\nAudio\nID                                       : 1\nFormat                                   : MPEG Audio\nFormat version                           : Version 1\nFormat profile                           : Layer 3\nMode                                     : Joint stereo\nMode extension                           : MS Stereo\nCodec ID                                 : 55\nCodec ID/Hint                            : MP3\nDuration                                 : 49mn 57s\nBit rate mode                            : Variable\nBit rate                                 : 178 Kbps\nNominal bit rate                         : 192 Kbps\nChannel(s)                               : 2 channels\nSampling rate                            : 48.0 KHz\nCompression mode                         : Lossy\nStream size                              : 63.4 MiB (8%)\nAlignment                                : Aligned on interleaves\nInterleave, duration                     : 24 ms (0.72 video frame)\nInterleave, preload duration             : 103 ms\nWriting library                          : LAME3.98r\nEncoding settings                        : -m j -V 4 -q 2 -lowpass 18.6 --abr 192\nLanguage                                 : English\n","torrent":{"xt":"urn:btih:01cba5f3a7be9a0f270050baaba977f31f4f213a","amp;dn":"Johnny+Cash+-+Live+From+Austin+Texas+%2801-03-1987%29","amp;tr":["udp%3A%2F%2Ftracker.openbittorrent.com%3A80","udp%3A%2F%2Fopen.demonii.com%3A1337","udp%3A%2F%2Ftracker.coppersurfer.tk%3A6969","udp%3A%2F%2Fexodus.desync.com%3A6969"],"infoHash":"01cba5f3a7be9a0f270050baaba977f31f4f213a","infoHashBuffer":{"type":"Buffer","data":[1,203,165,243,167,190,154,15,39,0,80,186,171,169,119,243,31,79,33,58]},"announce":[],"urlList":[]}}